<svg width="89" height="57" viewBox="0 0 89 57" fill="none" xmlns="http://www.w3.org/2000/svg">
<path fill-rule="evenodd" clip-rule="evenodd" d="M83.0848 6.55518V36.0459C83.0848 40.1142 79.8045 43.3945 75.7363 43.3945H9.40625V48.8456H80.2547C84.8215 48.8456 88.5359 45.1311 88.5359 40.5644V14.3379C88.5359 10.7521 86.2526 7.71294 83.0848 6.55518Z" fill="#B7B4C7"/>
<path fill-rule="evenodd" clip-rule="evenodd" d="M83.4721 36.3836V6.57124C82.5877 6.24963 81.6389 6.07275 80.642 6.07275H9.56836V43.8125H76.0753C80.1596 43.8125 83.4721 40.4679 83.4721 36.3836Z" fill="white"/>
<path fill-rule="evenodd" clip-rule="evenodd" d="M13.2344 17.4255C13.2344 16.7341 13.7972 16.1714 14.4886 16.1714H22.0462C22.7377 16.1714 23.3005 16.7341 23.3005 17.4255C23.3005 18.1169 22.7377 18.6797 22.0462 18.6797H14.4886C13.7972 18.6797 13.2344 18.1169 13.2344 17.4255Z" fill="#ABABB5"/>
<path fill-rule="evenodd" clip-rule="evenodd" d="M13.2344 22.3939C13.2344 21.7024 13.7972 21.1396 14.4886 21.1396H22.0462C22.7377 21.1396 23.3005 21.7024 23.3005 22.3939C23.3005 23.0853 22.7377 23.6481 22.0462 23.6481H14.4886C13.7972 23.6481 13.2344 23.0853 13.2344 22.3939Z" fill="#ABABB5"/>
<path fill-rule="evenodd" clip-rule="evenodd" d="M13.2344 27.3626C13.2344 26.6712 13.7972 26.1084 14.4886 26.1084H22.0462C22.7377 26.1084 23.3005 26.6712 23.3005 27.3626C23.3005 28.0541 22.7377 28.6169 22.0462 28.6169H14.4886C13.7972 28.6169 13.2344 28.0541 13.2344 27.3626Z" fill="#ABABB5"/>
<path fill-rule="evenodd" clip-rule="evenodd" d="M13.2344 32.3319C13.2344 31.6404 13.7972 31.0776 14.4886 31.0776H22.0462C22.7377 31.0776 23.3005 31.6404 23.3005 32.3319C23.3005 33.0233 22.7377 33.5861 22.0462 33.5861H14.4886C13.7972 33.5861 13.2344 33.0233 13.2344 32.3319Z" fill="#ABABB5"/>
<path fill-rule="evenodd" clip-rule="evenodd" d="M66.2334 13.6465C72.3438 13.6465 77.3125 18.5991 77.3125 24.7256C77.3125 30.8521 72.3599 35.8047 66.2334 35.8047C60.123 35.8047 55.1543 30.8521 55.1543 24.7256C55.1543 18.5991 60.123 13.6465 66.2334 13.6465Z" fill="#ABABB5"/>
<path fill-rule="evenodd" clip-rule="evenodd" d="M49.9132 24.8379V24.8861C49.9132 25.0308 49.9132 25.1756 49.8971 25.3203C49.8971 25.5615 49.865 25.7866 49.8489 26.0278C49.8328 26.1886 49.8167 26.3494 49.7845 26.5102C49.7524 26.7514 49.7042 26.9926 49.6559 27.2177C49.6238 27.3785 49.5916 27.5393 49.5433 27.7001C49.479 27.9413 49.4147 28.1825 49.3343 28.4076C49.2861 28.5684 49.2217 28.7292 49.1574 28.89C49.0609 29.1312 48.9645 29.3724 48.8519 29.5976C48.7715 29.7584 48.6911 29.9192 48.6107 30.08C48.4821 30.3212 48.3534 30.5624 48.2087 30.7875C48.1122 30.9483 47.9997 31.1091 47.8871 31.2699C47.7102 31.5111 47.5333 31.7523 47.3565 31.9774C47.2117 32.1382 47.0831 32.299 46.9384 32.4598C46.7133 32.701 46.4721 32.9422 46.2148 33.1673C46.0379 33.3281 45.8449 33.4889 45.652 33.6497C45.5233 33.7462 45.3947 33.8427 45.2661 33.9392C45.057 34.0839 44.848 34.2286 44.6389 34.3572C44.446 34.4698 44.253 34.5984 44.044 34.6949C43.9636 34.7432 43.8671 34.7914 43.7867 34.8236C43.2239 35.113 42.6289 35.3542 42.0018 35.5311C41.3586 35.724 40.6833 35.8527 40.0079 35.9331C39.622 35.9652 39.2361 35.9974 38.8501 35.9974C38.4642 35.9974 38.0622 35.9813 37.6924 35.9331C37.0009 35.8688 36.3417 35.724 35.6985 35.5311C35.0713 35.3542 34.4764 35.113 33.9136 34.8236L33.6563 34.6949C33.4473 34.5824 33.2543 34.4698 33.0613 34.3572C32.8523 34.2286 32.6433 34.0839 32.4342 33.9392C32.3056 33.8427 32.1769 33.7462 32.0483 33.6497C31.8553 33.4889 31.6624 33.3442 31.4855 33.1673C31.2282 32.9422 30.987 32.701 30.7619 32.4598C30.6172 32.299 30.4725 32.1382 30.3438 31.9774C30.1509 31.7523 29.974 31.5111 29.8132 31.2699C29.7006 31.1091 29.5881 30.9483 29.4916 30.7875C29.3469 30.5624 29.2182 30.3212 29.0896 30.08C29.0092 29.9192 28.9288 29.7584 28.8484 29.5976C28.7358 29.3724 28.6393 29.1312 28.5429 28.89C28.4785 28.7292 28.4303 28.5684 28.366 28.4076C28.2856 28.1664 28.2213 27.9413 28.1569 27.7001C28.1087 27.5393 28.0765 27.3785 28.0444 27.2177C27.9961 26.9926 27.9479 26.7514 27.9157 26.5102C27.8997 26.3494 27.8675 26.1886 27.8514 26.0278C27.8193 25.7866 27.8032 25.5615 27.8032 25.3203C27.8032 25.1756 27.7871 25.0308 27.7871 24.8861V24.8379C27.7871 24.5967 27.8032 24.3716 27.8193 24.1304C27.8353 23.9696 27.8353 23.8088 27.8675 23.648C27.8997 23.4068 27.9318 23.1656 27.964 22.9404C27.9961 22.7796 28.0283 22.6188 28.0605 22.458C28.1087 22.2168 28.173 21.9756 28.2373 21.7505C28.2856 21.5897 28.3338 21.4289 28.3821 21.2681C28.4625 21.0269 28.5589 20.7857 28.6554 20.5606C28.7197 20.3998 28.8001 20.239 28.8645 20.0782C28.977 19.837 29.1057 19.5958 29.2343 19.3707C29.3308 19.2099 29.4273 19.0491 29.5237 18.8883C29.6845 18.6471 29.8453 18.4059 30.0222 18.1808C30.1509 18.02 30.2795 17.8592 30.4081 17.6984C30.6172 17.4572 30.8262 17.216 31.0513 16.9908C31.2121 16.83 31.389 16.6692 31.5659 16.5084C31.8393 16.2672 32.1287 16.0421 32.4181 15.8331C32.4342 15.817 32.4503 15.817 32.4503 15.8009C32.6915 15.624 32.9327 15.4793 33.1739 15.3185C33.3186 15.222 33.4794 15.1416 33.6241 15.0612C33.9297 14.9004 34.2513 14.7396 34.5729 14.611C35.0231 14.418 35.4894 14.2572 35.9718 14.1286C36.5185 13.9839 37.0974 13.8713 37.6763 13.807C38.0622 13.7748 38.4481 13.7427 38.8341 13.7427C39.22 13.7427 39.622 13.7588 39.9918 13.807C40.5707 13.8713 41.1496 13.9678 41.6963 14.1286C42.1787 14.2572 42.645 14.418 43.0953 14.611C43.4169 14.7396 43.7385 14.9004 44.044 15.0612C44.2048 15.1416 44.3495 15.222 44.4942 15.3185C44.7515 15.4632 44.9927 15.624 45.2178 15.8009C45.2339 15.817 45.25 15.817 45.25 15.8331C45.5394 16.0421 45.8289 16.2672 46.1022 16.5084C46.2791 16.6692 46.456 16.83 46.6168 16.9908C46.8419 17.216 47.067 17.4572 47.2761 17.6984C47.4047 17.8592 47.5333 18.02 47.662 18.1808C47.8389 18.4059 47.9997 18.6471 48.1605 18.8883C48.257 19.0491 48.3534 19.2099 48.4499 19.3707C48.5786 19.5958 48.7072 19.837 48.8197 20.0782C48.9001 20.239 48.9645 20.3998 49.0288 20.5606C49.1253 20.7857 49.2217 21.0269 49.3021 21.2681C49.3504 21.4289 49.4147 21.5897 49.4469 21.7505C49.5112 21.9756 49.5755 22.2168 49.6237 22.458C49.6559 22.6188 49.6881 22.7796 49.7202 22.9404C49.7685 23.1816 49.8006 23.4068 49.8167 23.648C49.8328 23.8088 49.8489 23.9696 49.8649 24.1304C49.8971 24.3555 49.9132 24.5967 49.9132 24.8379Z" fill="#ABABB5"/>
<path fill-rule="evenodd" clip-rule="evenodd" d="M43.1107 14.6596H34.5723C35.0225 14.4667 35.4888 14.3059 35.9712 14.1772H41.7118C42.1781 14.3059 42.6444 14.4667 43.1107 14.6596Z" fill="#F0F0F3"/>
<path fill-rule="evenodd" clip-rule="evenodd" d="M45.2333 15.833H32.4336C32.6748 15.6561 32.916 15.5114 33.1572 15.3506H44.5097C44.7509 15.5114 44.9921 15.6722 45.2333 15.833Z" fill="#F0F0F3"/>
<path fill-rule="evenodd" clip-rule="evenodd" d="M46.6488 17.0229H31.0352C31.196 16.8621 31.3728 16.7013 31.5497 16.5405H46.1504C46.3112 16.7013 46.472 16.8621 46.6488 17.0229Z" fill="#F0F0F3"/>
<path fill-rule="evenodd" clip-rule="evenodd" d="M47.6763 18.2131H29.9883C30.1169 18.0522 30.2456 17.8913 30.3742 17.7305H47.2904C47.419 17.8752 47.5476 18.0361 47.6763 18.2131Z" fill="#F0F0F3"/>
<path fill-rule="evenodd" clip-rule="evenodd" d="M48.4489 19.3869H29.2012C29.2977 19.226 29.3941 19.0652 29.4906 18.9043H48.1595C48.2721 19.0652 48.3685 19.226 48.4489 19.3869Z" fill="#F0F0F3"/>
<path fill-rule="evenodd" clip-rule="evenodd" d="M49.0447 20.5766H28.623C28.6874 20.4158 28.7678 20.255 28.8321 20.0942H48.8195C48.8999 20.255 48.9803 20.4158 49.0447 20.5766Z" fill="#F0F0F3"/>
<path fill-rule="evenodd" clip-rule="evenodd" d="M49.4628 21.7505H28.2051C28.2533 21.5897 28.3016 21.4289 28.3498 21.2681H49.3181C49.3664 21.4449 49.4146 21.5897 49.4628 21.7505Z" fill="#F0F0F3"/>
<path fill-rule="evenodd" clip-rule="evenodd" d="M49.7346 22.9404H27.9141C27.9462 22.7796 27.9784 22.6188 28.0105 22.458H49.6381C49.6864 22.6188 49.7186 22.7796 49.7346 22.9404Z" fill="#F0F0F3"/>
<path fill-rule="evenodd" clip-rule="evenodd" d="M49.881 24.1304H27.7871C27.8032 23.9696 27.8032 23.8088 27.8353 23.6479H49.8489C49.865 23.8088 49.881 23.9696 49.881 24.1304Z" fill="#F0F0F3"/>
<path fill-rule="evenodd" clip-rule="evenodd" d="M49.9122 24.8379V24.8861C49.9122 25.0308 49.9122 25.1756 49.8961 25.3203H27.77C27.77 25.1756 27.7539 25.0308 27.7539 24.8861V24.8379H49.9122Z" fill="#F0F0F3"/>
<path fill-rule="evenodd" clip-rule="evenodd" d="M49.8484 26.0117C49.8323 26.1725 49.8163 26.3333 49.7841 26.4941H27.8671C27.851 26.3333 27.8188 26.1725 27.8027 26.0117H49.8484Z" fill="#F0F0F3"/>
<path fill-rule="evenodd" clip-rule="evenodd" d="M49.6559 27.2017C49.6237 27.3625 49.5915 27.5233 49.5433 27.6841H28.1087C28.0604 27.5233 28.0283 27.3625 27.9961 27.2017H49.6559Z" fill="#F0F0F3"/>
<path fill-rule="evenodd" clip-rule="evenodd" d="M49.333 28.3916C49.2847 28.5524 49.2204 28.7132 49.1561 28.874H28.4933C28.429 28.7132 28.3807 28.5524 28.3164 28.3916H49.333Z" fill="#F0F0F3"/>
<path fill-rule="evenodd" clip-rule="evenodd" d="M48.8667 29.5654C48.7863 29.7262 48.7059 29.887 48.6255 30.0478H29.04C28.9596 29.887 28.8792 29.7262 28.7988 29.5654H48.8667Z" fill="#F0F0F3"/>
<path fill-rule="evenodd" clip-rule="evenodd" d="M48.2248 30.7554C48.1283 30.9162 48.0158 31.077 47.9032 31.2378H29.765C29.6524 31.077 29.5398 30.9162 29.4434 30.7554H48.2248Z" fill="#F0F0F3"/>
<path fill-rule="evenodd" clip-rule="evenodd" d="M47.3717 31.9453C47.227 32.1061 47.0983 32.2669 46.9536 32.4277H30.713C30.5683 32.2669 30.4236 32.1061 30.2949 31.9453H47.3717Z" fill="#F0F0F3"/>
<path fill-rule="evenodd" clip-rule="evenodd" d="M46.2307 33.1191C46.0538 33.2799 45.8608 33.4407 45.6679 33.6015H32.0159C31.823 33.4407 31.63 33.296 31.4531 33.1191H46.2307Z" fill="#F0F0F3"/>
<path fill-rule="evenodd" clip-rule="evenodd" d="M44.6371 34.3091C44.4441 34.4216 44.2512 34.5503 44.0421 34.6468C43.9617 34.695 43.8653 34.7432 43.7849 34.7754H33.8796L33.6223 34.6468C33.4133 34.5342 33.2203 34.4216 33.0273 34.3091H44.6371Z" fill="#F0F0F3"/>
<path fill-rule="evenodd" clip-rule="evenodd" d="M39.9915 35.901C40.683 35.8367 41.3423 35.692 41.9855 35.499H39.9915H37.6599H35.666C36.3092 35.692 36.9846 35.8206 37.6599 35.901H39.9915Z" fill="#F0F0F3"/>
<path fill-rule="evenodd" clip-rule="evenodd" d="M40.5379 13.8553V35.8849H37.1289V13.8553C37.6917 13.8232 38.2545 13.791 38.8334 13.791C39.4123 13.791 39.9751 13.8232 40.5379 13.8553Z" fill="#F0F0F3"/>
<path fill-rule="evenodd" clip-rule="evenodd" d="M32.3848 15.8656V16.541V17.0234V17.7309V18.2133V18.9208V19.4032V20.1107V20.5931V21.3006V21.783V22.4906V22.973V23.6805V24.1629V24.8704V25.3528V26.0603V26.5427V27.2502V27.7326V28.4402V28.9226V29.6301V30.1125V30.82V31.3024V32.0099V32.4923V33.1998V33.6822V33.9717L33.0119 34.3898C33.2049 34.5023 33.3978 34.631 33.6068 34.7274V34.3898V33.6822V33.1998V32.4923V32.0099V31.3024V30.82V30.1125V29.6301V28.8582V28.3758V27.6683V27.1859V26.4784V25.996V25.2885V24.8061V24.0986V23.6162V22.9086V22.4262V21.7187V21.2363V20.5288V20.0464V19.3389V18.8565V18.149V17.6666V16.959V16.4766V15.8334V15.351V15.0938C33.446 15.1742 33.3013 15.2546 33.1566 15.351C32.8993 15.4958 32.6581 15.6566 32.433 15.8334L32.3848 15.8656Z" fill="#ABABB5"/>
<path fill-rule="evenodd" clip-rule="evenodd" d="M45.2324 15.8334C44.9912 15.6566 44.75 15.5118 44.5088 15.351C44.3641 15.2546 44.2033 15.1742 44.0586 15.0938V15.351V15.8334V16.541V17.0234V17.7309V18.2133V18.9208V19.4032V20.1107V20.5931V21.3006V21.783V22.4906V22.973V23.6805V24.1629V24.8704V25.3528V26.0603V26.5427V27.2502V27.7326V28.4402V28.9226V29.6301V30.1125V30.82V31.3024V32.0099V32.4923V33.1998V33.6822V34.3898V34.7274C44.2676 34.6149 44.4606 34.5023 44.6536 34.3898C44.8626 34.2611 45.0716 34.1164 45.2807 33.9717V33.6822V33.1998V32.4923V32.0099V31.3024V30.82V30.1125V29.6301V28.8582V28.3758V27.6683V27.1859V26.4784V25.996V25.2885V24.8061V24.0986V23.6162V22.9086V22.4262V21.7187V21.2363V20.5288V20.0464V19.3389V18.8565V18.149V17.6666V16.959V16.4766V15.8013L45.2324 15.8334Z" fill="#ABABB5"/>
<path fill-rule="evenodd" clip-rule="evenodd" d="M77.4093 24.6777V24.726C77.4093 24.8707 77.4093 25.0154 77.3932 25.1601C77.3932 25.4013 77.361 25.6265 77.345 25.8677C77.3289 26.0285 77.3128 26.1893 77.2806 26.3501C77.2485 26.5913 77.2002 26.8324 77.152 27.0576C77.1198 27.2184 77.0877 27.3792 77.0394 27.54C76.9751 27.7812 76.9108 28.0224 76.8304 28.2475C76.7822 28.4083 76.7178 28.5691 76.6535 28.7299C76.557 28.9711 76.4606 29.2123 76.348 29.4374C76.2676 29.5982 76.1872 29.759 76.1068 29.9198C75.9782 30.161 75.8495 30.4022 75.7048 30.6273C75.6083 30.7881 75.4958 30.9489 75.3832 31.1097C75.2063 31.3509 75.0294 31.5921 74.8526 31.8173C74.7078 31.9781 74.5792 32.1389 74.4345 32.2997C74.2094 32.5409 73.9682 32.7821 73.7109 33.0072C73.534 33.168 73.341 33.3288 73.1481 33.4896C73.0194 33.5861 72.8908 33.6825 72.7622 33.779C72.5531 33.9237 72.3441 34.0685 72.135 34.1971C71.9421 34.3097 71.7491 34.4383 71.5401 34.5348C71.4597 34.583 71.3632 34.6313 71.2828 34.6634C70.72 34.9529 70.125 35.1941 69.4979 35.3709C68.8547 35.5639 68.1794 35.6925 67.504 35.7729C67.1181 35.8051 66.7322 35.8373 66.3462 35.8373C65.9603 35.8373 65.5583 35.8212 65.1885 35.7729C64.497 35.7086 63.8378 35.5639 63.1946 35.3709C62.5674 35.1941 61.9725 34.9529 61.4097 34.6634L61.1524 34.5348C60.9434 34.4222 60.7504 34.3097 60.5574 34.1971C60.3484 34.0685 60.1394 33.9237 59.9303 33.779C59.8017 33.6825 59.673 33.5861 59.5444 33.4896C59.3514 33.3288 59.1585 33.1841 58.9816 33.0072C58.7243 32.7821 58.4831 32.5409 58.258 32.2997C58.1133 32.1389 57.9686 31.9781 57.8399 31.8173C57.647 31.5921 57.4701 31.3509 57.3093 31.1097C57.1967 30.9489 57.0842 30.7881 56.9877 30.6273C56.843 30.4022 56.7143 30.161 56.5857 29.9198C56.5053 29.759 56.4249 29.5982 56.3445 29.4374C56.2319 29.2123 56.1354 28.9711 56.039 28.7299C55.9746 28.5691 55.9264 28.4083 55.8621 28.2475C55.7817 28.0063 55.7174 27.7812 55.653 27.54C55.6048 27.3792 55.5726 27.2184 55.5405 27.0576C55.4922 26.8324 55.444 26.5913 55.4118 26.3501C55.3958 26.1893 55.3636 26.0285 55.3475 25.8677C55.3154 25.6265 55.2993 25.4013 55.2993 25.1601C55.2993 25.0154 55.2832 24.8707 55.2832 24.726V24.6777C55.2832 24.4365 55.2993 24.2114 55.3154 23.9702C55.3314 23.8094 55.3314 23.6486 55.3636 23.4878C55.3958 23.2466 55.4279 23.0054 55.4601 22.7803C55.4922 22.6195 55.5244 22.4587 55.5566 22.2979C55.6048 22.0567 55.6691 21.8155 55.7334 21.5904C55.7817 21.4296 55.8299 21.2688 55.8782 21.108C55.9586 20.8668 56.055 20.6256 56.1515 20.4004C56.2158 20.2396 56.2962 20.0788 56.3606 19.918C56.4731 19.6768 56.6018 19.4356 56.7304 19.2105C56.8269 19.0497 56.9234 18.8889 57.0198 18.7281C57.1806 18.4869 57.3414 18.2457 57.5183 18.0206C57.647 17.8598 57.7756 17.699 57.9042 17.5382C58.1133 17.297 58.3223 17.0558 58.5474 16.8307C58.7082 16.6699 58.8851 16.5091 59.062 16.3483C59.3354 16.1071 59.6248 15.882 59.9142 15.6729C59.9303 15.6568 59.9464 15.6568 59.9464 15.6408C60.1876 15.4639 60.4288 15.3192 60.67 15.1584C60.8147 15.0619 60.9755 14.9815 61.1202 14.9011C61.4258 14.7403 61.7474 14.5795 62.069 14.4508C62.5192 14.2579 62.9855 14.0971 63.4679 13.9684C64.0146 13.8237 64.5935 13.7112 65.1724 13.6468C65.5583 13.6147 65.9442 13.5825 66.3302 13.5825C66.7161 13.5825 67.1181 13.5986 67.4879 13.6468C68.0668 13.7112 68.6457 13.8076 69.1924 13.9684C69.6748 14.0971 70.1411 14.2579 70.5914 14.4508C70.913 14.5795 71.2346 14.7403 71.5401 14.9011C71.7009 14.9815 71.8456 15.0619 71.9903 15.1584C72.2476 15.3031 72.4888 15.4639 72.7139 15.6408C72.73 15.6568 72.7461 15.6568 72.7461 15.6729C73.0355 15.882 73.325 16.1071 73.5983 16.3483C73.7752 16.5091 73.9521 16.6699 74.1129 16.8307C74.338 17.0558 74.5631 17.297 74.7722 17.5382C74.9008 17.699 75.0294 17.8598 75.1581 18.0206C75.335 18.2457 75.4958 18.4869 75.6566 18.7281C75.753 18.8889 75.8495 19.0497 75.946 19.2105C76.0746 19.4356 76.2033 19.6768 76.3158 19.918C76.3962 20.0788 76.4606 20.2396 76.5249 20.4004C76.6214 20.6256 76.7178 20.8668 76.7982 21.108C76.8465 21.2688 76.9108 21.4296 76.943 21.5904C77.0073 21.8155 77.0716 22.0567 77.1198 22.2979C77.152 22.4587 77.1842 22.6195 77.2163 22.7803C77.2646 23.0215 77.2967 23.2466 77.3128 23.4878C77.3289 23.6486 77.345 23.8094 77.361 23.9702C77.3932 24.1953 77.4093 24.4365 77.4093 24.6777Z" fill="#ABABB5"/>
<path fill-rule="evenodd" clip-rule="evenodd" d="M70.6068 14.499H62.0684C62.5186 14.306 62.9849 14.1452 63.4673 14.0166H69.2079C69.6742 14.1452 70.1405 14.306 70.6068 14.499Z" fill="#F0F0F3"/>
<path fill-rule="evenodd" clip-rule="evenodd" d="M72.7294 15.6728H59.9297C60.1709 15.4959 60.4121 15.3512 60.6533 15.1904H72.0058C72.247 15.3512 72.4882 15.512 72.7294 15.6728Z" fill="#F0F0F3"/>
<path fill-rule="evenodd" clip-rule="evenodd" d="M74.1449 16.8628H58.5312C58.6921 16.702 58.8689 16.5412 59.0458 16.3804H73.6465C73.8073 16.5412 73.968 16.702 74.1449 16.8628Z" fill="#F0F0F3"/>
<path fill-rule="evenodd" clip-rule="evenodd" d="M75.1724 18.0527H57.4844C57.613 17.8919 57.7416 17.7311 57.8703 17.5703H74.7865C74.9151 17.715 75.0437 17.8758 75.1724 18.0527Z" fill="#F0F0F3"/>
<path fill-rule="evenodd" clip-rule="evenodd" d="M75.945 19.2263H56.6973C56.7937 19.0656 56.8902 18.9049 56.9867 18.7441H75.6556C75.7682 18.9049 75.8646 19.0656 75.945 19.2263Z" fill="#F0F0F3"/>
<path fill-rule="evenodd" clip-rule="evenodd" d="M76.5388 20.4165H56.1172C56.1815 20.2557 56.2619 20.0949 56.3262 19.9341H76.3137C76.3941 20.0949 76.4745 20.2557 76.5388 20.4165Z" fill="#F0F0F3"/>
<path fill-rule="evenodd" clip-rule="evenodd" d="M76.957 21.5903H55.6992C55.7475 21.4295 55.7957 21.2687 55.8439 21.1079H76.8123C76.8605 21.2848 76.9088 21.4295 76.957 21.5903Z" fill="#F0F0F3"/>
<path fill-rule="evenodd" clip-rule="evenodd" d="M77.2307 22.7803H55.4102C55.4423 22.6195 55.4745 22.4587 55.5066 22.2979H77.1342C77.1825 22.4587 77.2147 22.6195 77.2307 22.7803Z" fill="#F0F0F3"/>
<path fill-rule="evenodd" clip-rule="evenodd" d="M77.3771 23.9702H55.2832C55.2993 23.8094 55.2993 23.6486 55.3314 23.4878H77.345C77.3611 23.6486 77.3771 23.8094 77.3771 23.9702Z" fill="#F0F0F3"/>
<path fill-rule="evenodd" clip-rule="evenodd" d="M77.4082 24.6777V24.726C77.4082 24.8707 77.4082 25.0154 77.3922 25.1601H55.2661C55.2661 25.0154 55.25 24.8707 55.25 24.726V24.6777H77.4082Z" fill="#F0F0F3"/>
<path fill-rule="evenodd" clip-rule="evenodd" d="M77.3445 25.8516C77.3284 26.0124 77.3124 26.1732 77.2802 26.334H55.3632C55.3471 26.1732 55.3149 26.0124 55.2988 25.8516H77.3445Z" fill="#F0F0F3"/>
<path fill-rule="evenodd" clip-rule="evenodd" d="M77.1519 27.0415C77.1198 27.2023 77.0876 27.3631 77.0394 27.5239H55.6047C55.5565 27.3631 55.5243 27.2023 55.4922 27.0415H77.1519Z" fill="#F0F0F3"/>
<path fill-rule="evenodd" clip-rule="evenodd" d="M76.8291 28.2314C76.7809 28.3922 76.7165 28.553 76.6522 28.7138H55.9894C55.9251 28.553 55.8768 28.3922 55.8125 28.2314H76.8291Z" fill="#F0F0F3"/>
<path fill-rule="evenodd" clip-rule="evenodd" d="M76.3628 29.4053C76.2824 29.5661 76.202 29.7269 76.1216 29.8877H56.5361C56.4557 29.7269 56.3753 29.5661 56.2949 29.4053H76.3628Z" fill="#F0F0F3"/>
<path fill-rule="evenodd" clip-rule="evenodd" d="M75.7189 30.5952C75.6225 30.756 75.5099 30.9168 75.3973 31.0776H57.2591C57.1465 30.9168 57.034 30.756 56.9375 30.5952H75.7189Z" fill="#F0F0F3"/>
<path fill-rule="evenodd" clip-rule="evenodd" d="M74.868 31.7852C74.7233 31.946 74.5946 32.1068 74.4499 32.2676H58.2091C58.0644 32.1068 57.9197 31.946 57.791 31.7852H74.868Z" fill="#F0F0F3"/>
<path fill-rule="evenodd" clip-rule="evenodd" d="M73.7268 32.9585C73.5499 33.1193 73.3569 33.2801 73.164 33.4409H59.512C59.3191 33.2801 59.1261 33.1354 58.9492 32.9585H73.7268Z" fill="#F0F0F3"/>
<path fill-rule="evenodd" clip-rule="evenodd" d="M72.1332 34.1489C71.9402 34.2615 71.7473 34.3901 71.5382 34.4866C71.4578 34.5348 71.3614 34.5831 71.281 34.6152H61.3757L61.1184 34.4866C60.9094 34.374 60.7164 34.2615 60.5234 34.1489H72.1332Z" fill="#F0F0F3"/>
<path fill-rule="evenodd" clip-rule="evenodd" d="M67.4876 35.7409C68.1791 35.6766 68.8384 35.5318 69.4816 35.3389H67.4876H65.156H63.1621C63.8053 35.5318 64.4807 35.6605 65.156 35.7409H67.4876Z" fill="#F0F0F3"/>
<path fill-rule="evenodd" clip-rule="evenodd" d="M68.034 13.6952V35.7248H64.625V13.6952C65.1878 13.663 65.7506 13.6309 66.3295 13.6309C66.9084 13.6309 67.4712 13.663 68.034 13.6952Z" fill="#F0F0F3"/>
<path fill-rule="evenodd" clip-rule="evenodd" d="M59.8809 15.7054V16.3808V16.8632V17.5707V18.0531V18.7606V19.243V19.9506V20.433V21.1405V21.6229V22.3304V22.8128V23.5203V24.0027V24.7102V25.1926V25.9002V26.3826V27.0901V27.5725V28.28V28.7624V29.4699V29.9523V30.6598V31.1422V31.8498V32.3322V33.0397V33.5221V33.8115L60.508 34.2296C60.7009 34.3422 60.8939 34.4708 61.1029 34.5673V34.2296V33.5221V33.0397V32.3322V31.8498V31.1422V30.6598V29.9523V29.4699V28.6981V28.2157V27.5082V27.0258V26.3182V25.8358V25.1283V24.6459V23.9384V23.456V22.7485V22.2661V21.5586V21.0762V20.3686V19.8862V19.1787V18.6963V17.9888V17.5064V16.7989V16.3165V15.6733V15.1909V14.9336C60.9421 15.014 60.7974 15.0944 60.6527 15.1909C60.3954 15.3356 60.1542 15.4964 59.9291 15.6733L59.8809 15.7054Z" fill="#ABABB5"/>
<path fill-rule="evenodd" clip-rule="evenodd" d="M72.7285 15.6733C72.4873 15.4964 72.2461 15.3517 72.0049 15.1909C71.8602 15.0944 71.6994 15.014 71.5547 14.9336V15.1909V15.6733V16.3808V16.8632V17.5707V18.0531V18.7606V19.243V19.9506V20.433V21.1405V21.6229V22.3304V22.8128V23.5203V24.0027V24.7102V25.1926V25.9002V26.3826V27.0901V27.5725V28.28V28.7624V29.4699V29.9523V30.6598V31.1422V31.8498V32.3322V33.0397V33.5221V34.2296V34.5673C71.7637 34.4547 71.9567 34.3422 72.1496 34.2296C72.3587 34.101 72.5677 33.9562 72.7768 33.8115V33.5221V33.0397V32.3322V31.8498V31.1422V30.6598V29.9523V29.4699V28.6981V28.2157V27.5082V27.0258V26.3182V25.8358V25.1283V24.6459V23.9384V23.456V22.7485V22.2661V21.5586V21.0762V20.3686V19.8862V19.1787V18.6963V17.9888V17.5064V16.7989V16.3165V15.6411L72.7285 15.6733Z" fill="#ABABB5"/>
<path fill-rule="evenodd" clip-rule="evenodd" d="M56.6498 27.2823C57.8718 26.0763 59.4798 25.401 61.2165 25.401C61.9401 25.401 62.6154 25.5135 63.2908 25.7387C62.6476 26.1085 62.0526 26.5748 61.522 27.1055C60.2678 28.3597 59.4477 29.9195 59.11 31.6079C57.9522 30.4179 57.0839 28.9386 56.6498 27.2823ZM75.8171 22.185C74.595 23.391 72.987 24.0663 71.2504 24.0663C70.5268 24.0663 69.8514 23.9538 69.1761 23.7287C69.8193 23.3588 70.4142 22.8925 70.9449 22.3619C72.1991 21.1076 73.0192 19.5479 73.3569 17.8595C74.5307 19.0494 75.383 20.5287 75.8171 22.185ZM69.3047 20.7056C68.8062 21.2041 68.2274 21.6222 67.6002 21.9438C67.7932 21.2202 67.8736 20.4805 67.8736 19.7087C67.8736 17.9559 67.3429 16.2515 66.3942 14.8203C68.1469 14.8525 69.771 15.3349 71.1861 16.155C71.2021 17.8595 70.5268 19.4835 69.3047 20.7056ZM63.6767 15.1419C64.8827 16.364 65.5581 17.972 65.5581 19.7087C65.5581 20.4323 65.4455 21.1076 65.2204 21.783C64.8506 21.1398 64.3842 20.5448 63.8536 20.0142C62.5994 18.7599 61.0396 17.9399 59.3512 17.6022C60.5572 16.4283 62.0366 15.5761 63.6767 15.1419ZM57.6628 19.7569C59.3673 19.773 60.9914 20.4483 62.2134 21.6543C62.7119 22.1528 63.13 22.7317 63.4516 23.3588C62.728 23.1659 61.9883 23.0855 61.2165 23.0855C59.4637 23.0855 57.7593 23.6161 56.3282 24.5648C56.3603 22.796 56.8427 21.1719 57.6628 19.7569ZM63.1461 28.7456C63.6445 28.2471 64.2234 27.8291 64.8506 27.5075C64.6576 28.2311 64.5772 28.9707 64.5772 29.7426C64.5772 31.4953 65.1078 33.1998 66.0566 34.6309C64.3038 34.5987 62.6798 34.1163 61.2647 33.2963C61.2647 31.5918 61.9401 29.9677 63.1461 28.7456ZM68.7741 34.3093C67.5681 33.0872 66.8927 31.4792 66.8927 29.7426C66.8927 29.019 67.0053 28.3436 67.2304 27.6683C67.6002 28.3115 68.0666 28.9064 68.5972 29.4371C69.8514 30.6913 71.3951 31.5114 73.0996 31.8491C71.9097 33.0068 70.4303 33.8751 68.7741 34.3093ZM74.8041 29.7104C73.0996 29.6943 71.4755 29.019 70.2534 27.813C69.755 27.3145 69.3369 26.7356 69.0153 26.1085C69.7389 26.3015 70.4786 26.3819 71.2504 26.3819C73.0031 26.3819 74.7076 25.8512 76.1387 24.9025C76.1226 26.6552 75.6241 28.2954 74.8041 29.7104ZM66.2334 12.4727C59.4638 12.4727 53.9805 17.972 53.9805 24.7256C53.9805 31.4792 59.4798 36.9786 66.2334 36.9786C73.0031 36.9786 78.4864 31.4792 78.4864 24.7256C78.4864 17.972 72.987 12.4727 66.2334 12.4727Z" fill="#3E3F46"/>
<path fill-rule="evenodd" clip-rule="evenodd" d="M66.2343 21.4136C68.0675 21.4136 69.5468 22.8929 69.5468 24.7261C69.5468 26.5592 68.0675 28.0385 66.2343 28.0385C64.4012 28.0385 62.9219 26.5592 62.9219 24.7261C62.9219 22.8929 64.4012 21.4136 66.2343 21.4136Z" fill="#F0F0F3"/>
<path fill-rule="evenodd" clip-rule="evenodd" d="M67.6164 21.7188C67.8254 22.1368 67.9219 22.6032 67.9219 23.1016C67.9219 24.9348 66.4265 26.4141 64.6094 26.4141C64.111 26.4141 63.6446 26.3016 63.2266 26.1086C63.7572 27.2503 64.915 28.0382 66.2496 28.0382C68.0827 28.0382 69.5621 26.5428 69.5621 24.7257C69.5621 23.3911 68.7581 22.2333 67.6164 21.7188Z" fill="#ABABB5"/>
<path fill-rule="evenodd" clip-rule="evenodd" d="M29.2494 27.4435C30.4714 26.2375 32.0794 25.5621 33.8161 25.5621C34.5397 25.5621 35.215 25.6747 35.8904 25.8998C35.2472 26.2696 34.6522 26.7359 34.1216 27.2666C32.8674 28.5208 32.0473 30.0806 31.7096 31.769C30.5358 30.563 29.6835 29.0836 29.2494 27.4435ZM48.4167 22.3461C47.1947 23.5521 45.5867 24.2275 43.85 24.2275C43.1264 24.2275 42.451 24.1149 41.7757 23.8898C42.4189 23.5199 43.0138 23.0536 43.5445 22.523C44.7987 21.2687 45.6188 19.709 45.9565 18.0206C47.1143 19.2105 47.9826 20.6899 48.4167 22.3461ZM41.9043 20.8667C41.4058 21.3652 40.827 21.7833 40.1998 22.1049C40.3928 21.3813 40.4732 20.6416 40.4732 19.8698C40.4732 18.1171 39.9426 16.4126 38.9938 14.9815C40.7466 15.0136 42.3706 15.496 43.7857 16.3161C43.8018 18.0045 43.1103 19.6447 41.9043 20.8667ZM36.2763 15.3031C37.4823 16.5252 38.1577 18.1331 38.1577 19.8698C38.1577 20.5934 38.0451 21.2688 37.82 21.9441C37.4502 21.3009 36.9838 20.7059 36.4532 20.1753C35.199 18.9211 33.6392 18.101 31.9508 17.7633C33.1407 16.5895 34.6201 15.7372 36.2763 15.3031ZM30.2624 19.918C31.9669 19.9341 33.591 20.6095 34.813 21.8155C35.3115 22.314 35.7296 22.8928 36.0512 23.5199C35.3276 23.327 34.5879 23.2466 33.8161 23.2466C32.0473 23.2466 30.3589 23.7772 28.9278 24.7259C28.9438 22.9571 29.4423 21.3331 30.2624 19.918ZM35.7457 28.9067C36.2442 28.4083 36.823 27.9902 37.4502 27.6686C37.2572 28.3922 37.1768 29.1319 37.1768 29.9037C37.1768 31.6564 37.7074 33.3609 38.6562 34.792C36.9034 34.7599 35.2794 34.2775 33.8643 33.4574C33.8643 31.7529 34.5236 30.1128 35.7457 28.9067ZM41.3737 34.4704C40.1677 33.2484 39.4923 31.6404 39.4923 29.9037C39.4923 29.1801 39.6049 28.5047 39.83 27.8294C40.1998 28.4726 40.6662 29.0675 41.1968 29.5982C42.451 30.8524 43.9947 31.6725 45.6992 32.0102C44.5093 33.1679 43.0138 34.0202 41.3737 34.4704ZM47.4037 29.8715C45.6992 29.8555 44.0751 29.1801 42.853 27.9741C42.3546 27.4756 41.9365 26.8968 41.6149 26.2696C42.3385 26.4626 43.0782 26.543 43.85 26.543C45.6027 26.543 47.3072 26.0124 48.7383 25.0636C48.7062 26.8164 48.2238 28.4565 47.4037 29.8715ZM38.833 12.6338C32.0634 12.6338 26.5801 18.1331 26.5801 24.8867C26.5801 31.6404 32.0794 37.1397 38.833 37.1397C45.6027 37.1397 51.086 31.6404 51.086 24.8867C51.086 18.1331 45.5706 12.6338 38.833 12.6338Z" fill="#3E3F46"/>
<path fill-rule="evenodd" clip-rule="evenodd" d="M38.8341 21.5586C40.6672 21.5586 42.1466 23.038 42.1466 24.8711C42.1466 26.7042 40.6672 28.1836 38.8341 28.1836C37.001 28.1836 35.5216 26.7042 35.5216 24.8711C35.5055 23.054 37.001 21.5586 38.8341 21.5586Z" fill="#F0F0F3"/>
<path fill-rule="evenodd" clip-rule="evenodd" d="M40.216 21.8799C40.4251 22.298 40.5215 22.7643 40.5215 23.2628C40.5215 25.0959 39.0261 26.5752 37.209 26.5752C36.7106 26.5752 36.2443 26.4627 35.8262 26.2697C36.3568 27.4114 37.5146 28.1993 38.8492 28.1993C40.6823 28.1993 42.1617 26.7039 42.1617 24.8868C42.1456 23.5361 41.3577 22.3944 40.216 21.8799Z" fill="#ABABB5"/>
<path d="M23.5898 51.0974V46.9648H73.6791V48.6854H71.3635L71.8138 49.811H68.4852V49.602C68.5013 49.2 68.1636 48.8623 67.7616 48.8623C67.3596 48.8623 67.038 49.1839 67.038 49.5859V51.0974H34.8619V49.5859C34.8619 49.2804 34.6207 49.0392 34.3152 49.0392C34.0097 49.0392 33.7685 49.2804 33.7685 49.5859V51.0974H28.9445V48.7015H27.1596V51.0974H23.5898Z" fill="#3F3E45"/>
<path d="M68.4844 49.8107V51.7725H73.035C73.646 51.7725 74.1445 51.274 74.1445 50.663V49.666L68.4844 49.8107Z" fill="#FBA615"/>
<path d="M67.0374 51.0972H34.8613V53.0429H67.0374V51.0972Z" fill="#F2994A"/>
<path d="M33.7849 51.0972H28.9609V52.8981H33.7849V51.0972Z" fill="#F2994A"/>
<path d="M7.63867 10.6069V55.647H13.9099V50.5336H11.4657C10.4688 50.5336 9.64867 49.7457 9.64867 48.7809V10.6069H7.63867Z" fill="#3F3E45"/>
<path fill-rule="evenodd" clip-rule="evenodd" d="M5.51538 35.885H2.66921C1.94561 35.885 1.38281 35.3061 1.38281 34.5986V20.0462C1.38281 19.3226 1.96169 18.7598 2.66921 18.7598H5.51538V35.885Z" fill="#6E6E78"/>
<path fill-rule="evenodd" clip-rule="evenodd" d="M3.29728 27.9575V18.02H1.93048C1.20688 18.02 0.660156 18.5989 0.660156 19.3225V30.6589C2.10736 30.6589 3.29728 29.4529 3.29728 27.9575Z" fill="#ABABB5"/>
<path fill-rule="evenodd" clip-rule="evenodd" d="M7.63801 2.00424C7.63801 1.57008 7.42897 1.20024 7.10737 0.975119C6.91441 0.830399 6.67321 0.75 6.41593 0.75H1.22208C0.546721 0.75 0 1.3128 0 2.00424C0 2.69568 0.53064 3.25848 1.206 3.25848H5.19384V55.7115C5.19384 56.3868 5.72449 56.9335 6.38377 56.9335H6.432C7.10737 56.9335 7.638 56.3868 7.62192 55.7115L7.63801 2.00424Z" fill="#ABABB5"/>
<path d="M10.7736 54.699C11.6528 54.699 12.3655 53.9862 12.3655 53.1071C12.3655 52.2279 11.6528 51.5151 10.7736 51.5151C9.89437 51.5151 9.18164 52.2279 9.18164 53.1071C9.18164 53.9862 9.89437 54.699 10.7736 54.699Z" fill="#A5A5AD"/>
<path d="M10.9027 51.9492L10.9831 52.8819L11.8836 52.9623V53.2195L10.9831 53.2999L10.9027 54.2487H10.6293L10.5489 53.2999L9.64844 53.2195V52.9623L10.5489 52.8819L10.6293 51.9492H10.9027Z" fill="#3B3C43"/>
</svg>
